<?xml version="1.0" encoding="UTF-8" standalone="no"?>
<svg
   version="1.1"
   width="6.2057486in"
   height="3.9585426in"
   viewBox="0 0 446.81459 285.01551"
   id="svg1"
   xmlns="http://www.w3.org/2000/svg"
   xmlns:svg="http://www.w3.org/2000/svg">
  <defs
     id="defs1" />
  <path
     style="fill:#6ac05f;fill-opacity:1;stroke:none;stroke-width:0;stroke-dasharray:none;stroke-opacity:0.254902"
     d="m 51.050345,285.42437 c -3.115527,-0.004 -9.34658,-0.0118 -15.577633,-0.0197 0.138672,-0.45313 0.277342,-0.90625 0.696811,-2.22675 0.419469,-1.3205 1.119708,-3.50829 2.179013,-6.48892 1.059304,-2.98064 2.477601,-6.75392 3.858356,-10.19321 1.380755,-3.43928 2.723887,-6.54437 4.262036,-9.8012 1.538148,-3.25683 3.271218,-6.6652 5.372635,-10.46364 2.101416,-3.79843 4.571045,-7.98669 6.470254,-11.09186 1.899209,-3.10517 3.227895,-5.12708 4.679389,-7.22127 1.451493,-2.0942 3.025695,-4.26053 4.657721,-6.42694 1.632025,-2.1664 3.32177,-4.33274 5.199323,-6.62191 1.877552,-2.28917 3.942795,-4.70103 5.509823,-6.50636 1.567028,-1.80533 2.635758,-3.00404 4.318337,-4.7805 1.682579,-1.77645 3.978897,-4.13054 5.827559,-5.9792 1.848661,-1.84866 3.24956,-3.19179 5.047679,-4.84548 1.79812,-1.65369 3.993345,-3.61784 6.188637,-5.52428 2.195295,-1.90643 4.390515,-3.75504 6.542475,-5.50983 2.15196,-1.75478 4.26053,-3.41565 6.86744,-5.3943 2.60692,-1.97866 5.712,-4.27497 8.87495,-6.49192 3.16295,-2.21696 6.38358,-4.35442 9.53209,-6.39083 3.14851,-2.03642 6.22471,-3.97168 9.36599,-5.87089 3.14129,-1.89922 6.34747,-3.76227 9.99425,-5.7987 3.64679,-2.03642 7.73395,-4.24609 11.43127,-6.18863 3.69733,-1.94254 7.00461,-3.61784 10.13145,-5.1632 3.12685,-1.54537 6.07307,-2.96071 8.99771,-4.32555 2.92465,-1.36483 5.82755,-2.67908 8.91828,-4.05836 3.09074,-1.37927 6.36914,-2.8235 9.53209,-4.18111 3.16295,-1.35762 6.21026,-2.62853 10.96192,-4.5422 4.75167,-1.91366 11.20736,-4.46995 16.59447,-6.56413 5.38712,-2.09419 9.70536,-3.72616 15.39579,-5.85647 5.69044,-2.1303 12.75271,-4.75879 20.10405,-7.48124 7.35133,-2.72245 14.99129,-5.53869 20.08231,-7.430673 5.09102,-1.891982 7.63286,-2.859614 10.83915,-3.913932 3.20628,-1.054317 7.07681,-2.195256 10.7958,-3.509544 3.719,-1.314288 7.28623,-2.80184 10.85354,-4.289422 C 305.30299,115.17926 295.05068,146.08627 251.485,179.61264 207.91933,213.139 131.04337,249.28327 92.604623,267.35576 54.165872,285.42826 54.165872,285.4283 51.050345,285.42437 Z"
     id="path5"
     transform="matrix(1,0,0,1.0034244,-0.51621472,-0.76508884)" />
  <path
     style="fill:#643cb0;fill-opacity:1;stroke:none;stroke-width:0;stroke-dasharray:none;stroke-opacity:0.254902"
     d="m 53.972038,285.49201 c 0,0 94.563342,-0.10192 94.563342,-0.10192 0,0 171.96715,-81.87506 171.96715,-81.87506 -3.75577,-2.43757 -7.51154,-4.87515 -11.32601,-6.94331 -3.81447,-2.06817 -7.68747,-3.76686 -12.29105,-5.29572 -4.60359,-1.52886 -9.93747,-2.88781 -16.5116,-4.07693 -6.57413,-1.18911 -14.38809,-2.20833 -20.62245,-2.78589 -6.23435,-0.57757 -10.88875,-0.71346 -16.88531,-0.56057 -5.99656,0.15289 -13.33489,0.59455 -21.1321,1.51187 -7.79722,0.91732 -16.05284,2.31024 -25.51482,4.51861 -9.46198,2.20837 -20.12975,5.23204 -29.21798,8.27278 -9.08823,3.04074 -16.59643,6.09837 -24.07088,9.68272 -7.47445,3.58434 -14.91469,7.69516 -21.20969,11.46777 -6.29501,3.77261 -11.44441,7.20678 -17.20908,11.60529 -5.764679,4.3985 -12.144273,9.76106 -17.738136,15.03132 -5.593862,5.27025 -10.401674,10.4479 -14.978476,15.71816 -4.576802,5.27026 -8.92232,10.63281 -11.854303,14.62007 -2.931984,3.98726 -4.450281,6.59901 -5.968607,9.21081 z"
     id="path3"
     transform="matrix(1.1150872,0,0,1.0448448,-6.7277042,-13.107133)" />
  <path
     style="fill:#fec725;fill-opacity:1;stroke:none;stroke-width:0;stroke-dasharray:none;stroke-opacity:0.254902"
     d="m 148.53462,285.38864 c 0,0 220.38719,-0.0562 220.38719,-0.0562 1.10442,-0.18719 2.20883,-0.37438 3.38813,-0.77216 1.17931,-0.39778 2.43345,-1.00614 3.4396,-1.61919 1.00615,-0.61305 1.76425,-1.23076 2.89208,-2.21819 1.12783,-0.98744 2.62531,-2.34453 3.88885,-3.83739 1.26354,-1.49285 2.29306,-3.12136 2.91547,-4.43169 0.6224,-1.31033 0.83767,-2.30242 1.05294,-3.29452 0,0 0.0281,-117.3957 0.0281,-117.3957 -15.29336,24.84936 -30.58672,49.69872 -38.31764,62.2404 -7.73092,12.54169 -7.89938,12.77566 -8.3112,13.01901 -0.41182,0.24335 -1.06697,0.49605 -1.6145,0.40245 -0.54754,-0.0936 -0.98742,-0.53348 -1.31969,-0.90786 -0.33227,-0.37439 -0.55688,-0.68324 -1.24481,-2.71896 -0.68794,-2.03572 -1.83913,-5.79814 -4.45981,-9.46709 -2.62069,-3.66894 -6.7107,-7.24419 -10.80078,-10.8195 -34.04035,12.87862 -68.08071,25.75723 -91.72752,35.97784 -23.64681,10.22061 -36.89953,17.78289 -47.83146,24.42817 -10.93194,6.64527 -19.54247,12.37314 -24.54979,15.79872 -5.00733,3.42557 -6.41122,4.54868 -7.81514,5.67182 z"
     id="path2"
     transform="matrix(1,0,0,1.0025775,-0.51621472,-0.86767154)" />
  <path
     style="fill:#fec725;fill-opacity:1;stroke:none;stroke-width:0;stroke-dasharray:none;stroke-opacity:0.254902"
     d="m 16.657854,284.31517 c -0.138979,0.0397 -0.416945,0.11913 -0.906694,0.13898 -0.489749,0.0199 -1.191257,-0.0199 -2.025152,-0.19854 -0.833894,-0.1787 -1.800125,-0.49636 -2.660491,-0.92654 -0.860365,-0.43019 -1.6148201,-0.97287 -2.5943156,-1.76705 -0.9794954,-0.79419 -2.1839744,-1.83984 -3.5407058,-3.54734 -1.3567314,-1.7075 -2.8656368,-4.07675 -4.37457208,-6.44604 0,0 -0.0397088,-256.876376 -0.0397088,-256.876376 0.0794177,-0.78094 0.15883529,-1.56188 0.50960258,-2.574467 C 1.3765847,11.10521 1.9986774,9.8610244 2.6737347,8.8285867 3.3487921,7.7961489 4.0767725,6.9755166 5.1224518,5.9563113 6.1681311,4.937106 7.5314398,3.7193932 8.8881714,2.8193207 10.244903,1.9192481 11.594976,1.3368637 12.495047,1.0059561 c 0.900071,-0.33090763 1.350096,-0.41032375 1.800129,-0.4897414 0,0 110.986164,-0.0397088 110.986164,-0.0397088 0.92654,0.23825293 1.85308,0.47650748 2.67373,0.8008007 0.82066,0.3242933 1.5354,0.7346071 2.5877,1.4890863 1.0523,0.7544791 2.44207,1.853062 3.85837,3.1700885 1.4163,1.3170265 2.85903,2.8524066 5.58574,5.8703206 2.72671,3.017913 6.73722,7.518156 9.88086,10.959612 3.14364,3.441456 5.42023,5.823937 8.30577,8.213108 2.88554,2.389171 6.37985,4.78489 8.93447,6.313686 2.55461,1.528796 4.16941,2.190599 6.13502,2.753146 1.96561,0.562546 4.28191,1.025805 6.49901,1.244203 2.21709,0.218398 4.33486,0.191925 36.24813,0.185307 31.91327,-0.0066 93.61955,0.0066 155.32706,0.01985 -2.7002,1.336864 -5.4004,2.673728 -7.90208,3.87162 -2.50167,1.197893 -4.80474,2.256776 -9.08674,4.162827 -4.28199,1.90605 -10.54263,4.659143 -16.06882,6.9358 -5.52619,2.276656 -10.31763,4.076754 -19.84951,7.502449 -9.53189,3.425694 -23.80357,8.476753 -40.56126,14.109734 -16.7577,5.632981 -36.00036,11.847537 -51.94901,17.31351 -15.94864,5.465971 -28.60238,10.183051 -41.2565,15.499281 -12.65411,5.31624 -25.30784,11.23129 -37.25063,17.55835 -11.94278,6.32707 -23.17391,13.06574 -34.03099,20.32876 -10.85707,7.26302 -21.339456,15.04993 -30.586684,22.91196 -9.247228,7.86203 -17.258763,15.79869 -23.997627,23.32376 -6.738865,7.52508 -12.204683,14.63813 -17.371152,23.0243 -5.166469,8.38617 -10.033291,18.04494 -13.964293,27.74143 -3.931002,9.6965 -6.925971,19.43015 -8.544165,25.85243 -1.618195,6.42228 -1.859549,9.53288 -1.980228,11.08821 -0.120679,1.55533 -0.120679,1.55532 -0.259657,1.59503 z"
     id="path1"
     transform="translate(-0.51621472,-0.4765059)" />
  <path
     style="fill:#3d7ee0;fill-opacity:1;stroke:none;stroke-width:0;stroke-dasharray:none;stroke-opacity:0.254902"
     d="m 447.34944,9.8927291 c -0.11683,-0.212564 -0.39469,-0.00826 -0.70116,0.2042289 -0.30646,0.212484 -0.64152,0.433135 -1.02358,0.696698 -0.38207,0.263563 -0.8111,0.570013 -1.27081,0.892826 -0.4597,0.322814 -0.95003,0.66196 -1.63652,1.138005 -0.68648,0.476045 -1.56908,1.088961 -2.48031,1.720281 -0.91122,0.631321 -1.85103,1.281015 -2.82968,1.949112 -0.97865,0.668098 -1.99609,1.354563 -2.90323,1.969539 -0.90714,0.614976 -1.70393,1.158428 -2.83377,1.922554 -1.12985,0.764126 -2.59267,1.748873 -3.93908,2.63967 -1.34641,0.890796 -2.57633,1.687589 -3.76542,2.461928 -1.18909,0.774339 -2.33728,1.526178 -3.30776,2.155454 -0.97047,0.629276 -1.76318,1.135955 -2.42515,1.56092 -0.66196,0.424965 -1.19315,0.768197 -2.01244,1.291235 -0.81929,0.523039 -1.92663,1.225852 -2.83785,1.795879 -0.91123,0.570026 -1.62629,1.007235 -3.81039,2.345481 -2.1841,1.338247 -5.83708,3.577432 -7.79845,4.778772 -1.96137,1.201339 -2.23106,1.364787 -3.41811,2.071708 -1.18706,0.706922 -3.2914,1.957268 -5.01578,2.968606 -1.72439,1.011339 -3.06871,1.783607 -4.00446,2.316858 -0.93574,0.533251 -1.46284,0.827448 -2.25149,1.276936 -0.78864,0.449487 -1.83877,1.054232 -2.91344,1.665122 -1.07468,0.61089 -2.17384,1.22789 -3.2526,1.830606 -1.07876,0.602716 -2.13706,1.191113 -3.49778,1.934807 -1.36071,0.743695 -3.02376,1.642641 -4.41716,2.394505 -1.3934,0.751865 -2.51707,1.356605 -3.49163,1.875555 -0.97457,0.51895 -1.79996,0.952075 -2.90733,1.53232 -1.10737,0.580246 -2.49664,1.307571 -3.59992,1.883728 -1.10328,0.576157 -1.9205,1.001112 -2.81742,1.460811 -0.89693,0.459699 -1.87351,0.954117 -4.00653,2.008368 -2.13302,1.05425 -5.42233,2.66826 -7.4736,3.671421 -2.05127,1.003161 -2.86441,1.395429 -4.59493,2.208589 -1.73052,0.813161 -4.37832,2.047166 -6.26411,2.917528 -1.88578,0.870362 -3.00945,1.377035 -5.01988,2.267836 -2.01043,0.8908 -4.90748,2.165668 -6.92198,3.042159 -2.0145,0.876492 -3.14635,1.354566 -4.54793,1.936854 -1.40158,0.582289 -3.07279,1.268752 -4.18628,1.726406 -1.11349,0.457654 -1.6692,0.686475 -2.22492,0.9153 -0.15936,0.527118 -0.31872,1.054239 -0.64766,1.857184 -0.32894,0.802946 -0.82745,1.881678 -1.23607,2.749997 -0.40862,0.86832 -0.72734,1.526181 -1.12779,2.318909 -0.40045,0.792727 -0.88261,1.720275 -1.49963,2.856245 -0.61702,1.13597 -1.36887,2.4803 -2.13299,3.781763 -0.76412,1.301462 -1.54048,2.559976 -2.16771,3.550887 -0.62724,0.99091 -1.10531,1.71414 -1.54662,2.38224 -0.44131,0.66809 -0.84584,1.28101 -1.52824,2.25353 -0.6824,0.97253 -1.64264,2.3046 -2.47419,3.43239 -0.83154,1.1278 -1.53435,2.05126 -2.81947,3.63059 -1.28512,1.57933 -3.15247,3.81443 -5.57561,6.49704 -2.42313,2.68262 -5.40189,5.81256 -8.29494,8.68313 -2.89305,2.87057 -5.7002,5.48159 -8.22344,7.73514 -2.52324,2.25354 -4.76242,4.14949 -7.08544,6.0455 -2.32302,1.89601 -4.72973,3.79196 -7.95785,6.18241 -3.22813,2.39044 -7.27746,5.27523 -11.27991,7.99461 -4.00245,2.71937 -7.9578,5.27319 -11.52507,7.49405 -3.56727,2.22086 -6.74625,4.10863 -10.87334,6.44187 -4.1271,2.33324 -9.20204,5.11179 -13.06147,7.19371 -3.85942,2.08192 -6.50312,3.46711 -9.36553,4.92794 -2.8624,1.46082 -5.94332,2.9972 -8.51968,4.26392 -2.57636,1.26673 -4.64801,2.26374 -7.3388,3.54068 -2.69078,1.27695 -6.00052,2.83376 -9.31033,4.3906 3.68982,-0.99703 7.37965,-1.99406 11.1864,-2.92125 3.80675,-0.92718 7.73027,-1.78449 10.26694,-2.32813 2.53667,-0.54364 3.68638,-0.77358 5.06607,-1.02774 1.37969,-0.25415 2.98929,-0.5325 4.63523,-0.79875 1.64595,-0.26626 3.32815,-0.5204 4.98014,-0.75035 1.65199,-0.22994 3.27369,-0.43568 4.89543,-0.62932 1.62174,-0.19364 3.24343,-0.37518 4.79255,-0.53251 1.54913,-0.15734 3.02559,-0.29046 4.63523,-0.41753 1.60964,-0.12708 3.35235,-0.2481 4.83491,-0.33887 1.48256,-0.0908 2.70488,-0.15129 3.85462,-0.1997 1.14974,-0.0484 2.22683,-0.0847 3.42498,-0.10892 1.19815,-0.0242 2.51729,-0.0363 3.83041,-0.0363 1.31313,0 2.62017,0.0121 3.9454,0.0363 1.32523,0.0242 2.66856,0.0605 4.0301,0.11498 1.36154,0.0545 2.74119,0.12707 3.96354,0.19364 1.22235,0.0666 2.28734,0.12708 3.71545,0.22995 1.4281,0.10287 3.21922,0.24809 5.07696,0.44173 1.85774,0.19364 3.78199,0.43569 5.48239,0.67774 1.7004,0.24205 3.17687,0.48409 4.58682,0.72009 1.40994,0.236 2.75328,0.46594 4.09666,0.72615 1.34338,0.2602 2.68672,0.55065 4.18744,0.90768 1.50071,0.35702 3.15871,0.7806 4.7381,1.21629 1.57938,0.43569 3.08004,0.88348 4.66547,1.39179 1.58544,0.50831 3.25554,1.07711 4.83492,1.65198 1.57938,0.57487 3.06794,1.15576 4.59287,1.7972 1.52492,0.64144 3.0861,1.34337 4.58076,2.07557 1.49466,0.7322 2.92272,1.49464 4.42949,2.35997 1.50676,0.86534 3.09214,1.8335 4.53234,2.7533 1.4402,0.91979 2.73513,1.79115 3.9938,2.7533 1.25867,0.96216 2.48098,2.01504 3.63072,3.10427 1.14974,1.08923 2.22684,2.21473 3.12848,3.2495 0.90164,1.03477 1.62776,1.97873 2.43864,3.10427 0.81087,1.12554 1.70643,2.43257 2.51124,3.76385 0.80482,1.33128 1.51885,2.68673 2.14818,4.12693 0.62933,1.4402 1.17393,2.96507 1.48859,3.89696 0.31467,0.93189 0.39938,1.27075 0.55066,1.60357 0.15129,0.33282 0.36912,0.65958 0.89559,0.61722 0.52646,-0.0424 1.36151,-0.45384 1.86376,-0.75035 0.50225,-0.29651 0.67169,-0.47804 1.13764,-1.11948 0.46595,-0.64144 1.22838,-1.74274 2.71095,-4.05434 1.48257,-2.31159 3.68516,-5.83332 7.32804,-11.71518 3.64288,-5.88185 8.72579,-14.12344 12.99193,-21.03397 4.26613,-6.91054 7.71525,-12.48963 10.96478,-17.94183 3.24953,-5.45219 6.29928,-10.77714 9.2886,-16.02359 2.98933,-5.24645 5.91806,-10.41408 9.88165,-17.92978 3.96359,-7.5157 8.96178,-17.37896 14.02669,-27.7811 5.06492,-10.40214 10.19624,-21.342498 13.98432,-29.596402 3.78808,-8.253904 6.23272,-13.820902 8.21148,-18.43801 1.97876,-4.617108 3.49153,-8.284066 4.64732,-11.15236 1.15579,-2.868293 1.95453,-4.937764 2.68673,-6.849962 0.73221,-1.912198 1.39783,-3.667013 1.9969,-5.319008 0.59907,-1.651996 1.13157,-3.201076 1.69433,-4.774407 0.56277,-1.573331 1.15578,-3.170815 1.68829,-4.7744 0.53252,-1.603585 1.0045,-3.213175 1.45835,-4.786505 0.45384,-1.573329 0.88952,-3.110307 1.22234,-4.405275 0.33281,-1.294968 0.56276,-2.347857 0.81086,-3.497598 0.24811,-1.149741 0.51436,-2.396266 0.66958,-3.334265 0.15523,-0.938 0.19943,-1.567425 0.0826,-1.7799889 z"
     id="path4"
     transform="translate(-0.60100207,0.7304904)" />
</svg>
